<svg xmlns="http://www.w3.org/2000/svg" viewBox="0 0 128 128" role="img" aria-label="Red Cross of Constantine crest">
  <defs>
    <linearGradient id="shield" x1="0" y1="0" x2="0" y2="1">
      <stop offset="0" stop-color="#a32424"/>
      <stop offset="1" stop-color="#6e1313"/>
    </linearGradient>
  </defs>
  <path d="M64 6 L118 22 V64 C118 92 96 114 64 122 C32 114 10 92 10 64 V22 Z"
        fill="url(#shield)" stroke="#3d0a0a" stroke-width="2"/>
  <path d="M64 14 L110 27 V64 C110 88 91 107 64 114 C37 107 18 88 18 64 V27 Z"
        fill="none" stroke="#f3ebd6" stroke-width="1.5" opacity="0.7"/>
  <g fill="none" stroke="#f3ebd6" stroke-width="6" stroke-linecap="round" stroke-linejoin="round">
    <line x1="64" y1="36" x2="64" y2="96"/>
    <path d="M48 52 Q64 40 80 52 Q80 68 64 68 L64 68"/>
    <line x1="50" y1="62" x2="78" y2="62"/>
  </g>
  <text x="64" y="110" text-anchor="middle"
        font-family="Georgia, 'Times New Roman', serif"
        font-size="11" font-weight="700" fill="#f3ebd6" letter-spacing="2">
    IHSV
  </text>
</svg>
